<svg version="1.2" xmlns="http://www.w3.org/2000/svg" viewBox="0 0 309 70" width="309" height="70"><style>tspan{white-space:pre}.a{font-size: 57px;fill: #ffffff;font-weight: 700;font-style: italic;font-family: "DejaVuSerifCondensed-BoldItalic", "DejaVu Serif"}.b{fill:#ff3f4b}</style><text style="transform:matrix(1,0,0,1,120,55)" ><tspan x="0" y="0" class="a">H</tspan><tspan  y="0" class="a">o</tspan><tspan  y="0" class="a">m</tspan><tspan  y="0" class="a">e
</tspan></text><path class="b" d="m20.8 42h-10.4v-6.6h10.4q2.4 0 3.9-0.7 1.5-0.9 2.2-2.3 0.7-1.4 0.7-3.2 0-1.8-0.7-3.4-0.7-1.6-2.2-2.5-1.5-1-3.9-1h-7.5v34.3h-8.4v-40.9h15.9q4.8 0 8.2 1.8 3.5 1.7 5.3 4.7 1.8 3 1.8 6.9 0 4-1.8 6.9-1.8 2.9-5.3 4.4-3.4 1.6-8.2 1.6zm29.1-15.8v30.4h-8.1v-30.4zm-8.6-7.9q0-1.8 1.3-2.9 1.2-1.2 3.3-1.2 2 0 3.2 1.2 1.3 1.1 1.3 2.9 0 1.8-1.3 2.9-1.2 1.2-3.2 1.2-2.1 0-3.3-1.2-1.3-1.1-1.3-2.9zm39.5 32v6.3h-23.1v-6.3zm-0.4-19.4l-19.4 25.7h-5.4v-4.8l19.3-25.6h5.5zm-2.9-4.6v6.3h-21.5v-6.3zm32.6 24v6.3h-23.1v-6.3zm-0.4-19.4l-19.4 25.7h-5.4v-4.8l19.3-25.5h5.5zm-2.9-4.7v6.3h-21.5v-6.3zm24.8 23.5v-13.5q0-1.5-0.5-2.5-0.4-1.1-1.4-1.7-1-0.6-2.6-0.6-1.3 0-2.3 0.5-1 0.5-1.5 1.3-0.6 0.9-0.6 2h-8.1q0-1.9 0.9-3.6 0.9-1.8 2.6-3.1 1.8-1.3 4.1-2.1 2.4-0.8 5.3-0.8 3.6 0 6.3 1.2 2.8 1.2 4.4 3.6 1.6 2.3 1.6 5.8v13q0 2.5 0.3 4.1 0.3 1.6 0.9 2.8v0.5h-8.2q-0.6-1.3-0.9-3.1-0.3-1.9-0.3-3.8zm1.1-11.6v4.5h-4.5q-1.6 0-2.8 0.4-1.1 0.4-1.9 1-0.8 0.7-1.1 1.6-0.4 0.8-0.4 1.9 0 1 0.5 1.8 0.5 0.9 1.4 1.3 0.9 0.5 2.1 0.5 1.8 0 3.2-0.7 1.3-0.8 2.1-1.8 0.7-1.1 0.7-2.1l2.2 3.5q-0.5 1.1-1.3 2.3-0.7 1.3-1.9 2.4-1.2 1-2.8 1.7-1.7 0.7-4 0.7-2.9 0-5.2-1.1-2.3-1.2-3.7-3.3-1.4-2-1.4-4.7 0-2.4 0.9-4.2 0.9-1.9 2.7-3.1 1.7-1.3 4.4-2 2.6-0.6 6.1-0.6z"/></svg>